<svg id="Layer_1" data-name="Layer 1" xmlns="http://www.w3.org/2000/svg" viewBox="0 0 502 733.54"><defs><style>.cls-1{fill:#fff;stroke:#231f20;stroke-miterlimit:10;}</style></defs><path class="cls-1" d="M303.5,830V183.5c0-16-2-32.5-32.5-32.5H162c-40.5,0-50,22.5-50,36v32c0,14.5-2.5,51,28,51h49c23,0,42-2.5,42,23s-6.5,41-41,41H114c-44.5,0-45-28-45-47V132c0-30,28.5-35,60-35H246c53.5,0,96-3.5,96,52s-1,39.5-1,64,7.5,25,36.5,25c38.5,0,36.5-14.5,36.5-30V148c0-23,11.5-29,33-29h34c23.5,0,28.5,8,28.5,28.5V211c0,29.5,25.25,29.75,43,29.75,0,0,17.5,4.75,17.5,32.25v85c0,20.5-6,29-33,29H458c-29,0-24-24-24-24V304c0-28,26.5-26.5,26.5-26.5H486c19.5,0,19.25,9.5,19.25,19.25S490,312,490,312H469c-11,0-9,5.5-9,15v24c0,9-4,20.5,20.5,20.5s15.25-19.75,33.75-19.75,22.25-6.5,22.25-22.25V289.25S542.5,254,502,254H444c-24,0-42.5,8.5-42.5,42.5V371c0,23.5-10.5,32.25-32.25,32.25S347,425,347,439v71c0,44,21,40.5,40.5,40.5S436,553,436,599V825" transform="translate(-68.5 -96.46)"/></svg>